<svg id="logosandtypes_com" xmlns="http://www.w3.org/2000/svg" viewBox="0 0 150 150"><path d="M0 0h150v150H0V0z" fill="none"/><path d="M128.4 13.8H60.6c-22 0-39.8 17.8-39.8 39.8v.1h107.6V13.8z" fill="#f05b26"/><path d="M20.8 133h67.8c22 0 39.8-17.8 39.8-39.8v-.1H20.8V133z" fill="#e97b24"/><path d="M88.7 53.6H54.8l-25-25.2c-5.8 7.1-9 16-9 25.2v.2c.1 21.9 17.9 39.6 39.8 39.6h33.6l25.2 25.2c5.8-7.1 9-16 9-25.2v-.2c-.1-22-17.9-39.6-39.7-39.6z" fill="#f58a46"/><path d="M29.8 28.3c-5.8 7.1-9 16-9 25.2v.2c.1 21.9 17.9 39.6 39.8 39.6h33.6l-64.4-65z" fill="#d64e27"/></svg>